<?xml version="1.0" encoding="utf-8"?>
<!-- Generator: Adobe Illustrator 24.3.0, SVG Export Plug-In . SVG Version: 6.00 Build 0)  -->
<svg version="1.1" xmlns="http://www.w3.org/2000/svg" xmlns:xlink="http://www.w3.org/1999/xlink" x="0px" y="0px"
	 viewBox="0 0 750 500" style="enable-background:new 0 0 750 500;" xml:space="preserve">
<style type="text/css">
	.st0{fill:#F2EAE7;}
	.st1{opacity:0.5;}
	.st2{clip-path:url(#SVGID_2_);}
	.st3{fill:none;stroke:#846C66;stroke-width:0.788;stroke-miterlimit:10;}
	.st4{fill:#C19780;}
	.st5{fill:none;stroke:#B68973;stroke-width:2;stroke-miterlimit:10;}
	.st6{fill:#9B5032;}
	.st7{fill:none;stroke:#846C66;stroke-miterlimit:10;}
	.st8{fill:#846C66;}
	.st9{fill:#C6B7B3;}
</style>
<g id="BACKGROUND">
	<rect class="st0" width="750" height="500"/>
</g>
<g id="OBJECTS">
	<g class="st1">
		<defs>
			<rect id="SVGID_1_" x="0" y="0" class="st1" width="750" height="500"/>
		</defs>
		<clipPath id="SVGID_2_">
			<use xlink:href="#SVGID_1_"  style="overflow:visible;"/>
		</clipPath>
		<g class="st2">
			<g>
				<polygon class="st3" points="-103.5,290.44 52.63,290.44 67.1,265.39 52.63,240.33 -103.5,240.33 -103.5,208.81 70.83,208.81 
					103.5,265.39 70.83,321.96 -103.5,321.96 				"/>
				<polygon class="st3" points="-95.62,314.08 -95.62,298.32 57.18,298.32 76.2,265.39 57.18,232.45 -95.62,232.45 -95.62,216.69 
					66.28,216.69 94.4,265.39 66.28,314.08 				"/>
				<polyline class="st3" points="-95.62,306.2 61.73,306.2 85.3,265.39 61.73,224.57 -95.62,224.57 				"/>
			</g>
			<polygon class="st4" points="-137.29,149.35 -137.29,259.54 -41.86,314.64 53.56,259.54 53.56,149.35 -41.86,94.25 			"/>
			<polygon class="st5" points="629.95,-46.06 629.95,64.13 725.38,119.23 820.81,64.13 820.81,-46.06 725.38,-101.16 			"/>
			<polygon class="st6" points="13.76,47.82 13.76,100.26 59.17,126.47 104.58,100.26 104.58,47.82 59.17,21.6 			"/>
			<polygon class="st6" points="642.17,352.23 642.17,404.66 687.58,430.88 732.99,404.66 732.99,352.23 687.58,326.01 			"/>
			<polygon class="st6" points="161.98,-59 161.98,25.32 235,67.47 308.02,25.32 308.02,-59 235,-101.16 			"/>
			<polygon class="st4" points="602.39,25.43 602.39,68.62 639.8,90.22 677.21,68.62 677.21,25.43 639.8,3.83 			"/>
			<polygon class="st6" points="687.9,29.65 687.9,52.44 707.64,63.84 727.37,52.44 727.37,29.65 707.64,18.26 			"/>
			<polygon class="st7" points="73.36,88.73 73.36,116.07 97.03,129.74 120.71,116.07 120.71,88.73 97.03,75.06 			"/>
			<polygon class="st7" points="-16.06,-9.89 -16.06,41.69 28.61,67.47 73.28,41.69 73.28,-9.89 28.61,-35.68 			"/>
			<g>
				<g>
					<g>
						<g>
							<g>
								<polygon class="st8" points="40.13,354.32 40.13,357.17 42.59,358.59 45.06,357.17 45.06,354.32 42.59,352.9 								"/>
							</g>
							<g>
								<polygon class="st8" points="40.13,336 40.13,338.85 42.59,340.28 45.06,338.85 45.06,336 42.59,334.58 								"/>
							</g>
							<g>
								<polygon class="st8" points="40.13,317.69 40.13,320.54 42.59,321.96 45.06,320.54 45.06,317.69 42.59,316.27 								"/>
							</g>
							<g>
								<polygon class="st8" points="40.13,299.37 40.13,302.22 42.59,303.65 45.06,302.22 45.06,299.37 42.59,297.95 								"/>
							</g>
						</g>
						<g>
							<g>
								<polygon class="st8" points="59.17,354.32 59.17,357.17 61.63,358.59 64.1,357.17 64.1,354.32 61.63,352.9 								"/>
							</g>
							<g>
								<polygon class="st8" points="59.17,336 59.17,338.85 61.63,340.28 64.1,338.85 64.1,336 61.63,334.58 								"/>
							</g>
							<g>
								<polygon class="st8" points="59.17,317.69 59.17,320.54 61.63,321.96 64.1,320.54 64.1,317.69 61.63,316.27 								"/>
							</g>
							<g>
								<polygon class="st8" points="59.17,299.37 59.17,302.22 61.63,303.65 64.1,302.22 64.1,299.37 61.63,297.95 								"/>
							</g>
						</g>
						<g>
							<g>
								<polygon class="st8" points="78.21,354.32 78.21,357.17 80.68,358.59 83.14,357.17 83.14,354.32 80.68,352.9 								"/>
							</g>
							<g>
								<polygon class="st8" points="78.21,336 78.21,338.85 80.68,340.28 83.14,338.85 83.14,336 80.68,334.58 								"/>
							</g>
							<g>
								<polygon class="st8" points="78.21,317.69 78.21,320.54 80.68,321.96 83.14,320.54 83.14,317.69 80.68,316.27 								"/>
							</g>
							<g>
								<polygon class="st8" points="78.21,299.37 78.21,302.22 80.68,303.65 83.14,302.22 83.14,299.37 80.68,297.95 								"/>
							</g>
						</g>
					</g>
					<g>
						<g>
							<g>
								<polygon class="st8" points="683.97,444.31 683.97,447.15 686.44,448.58 688.9,447.15 688.9,444.31 686.44,442.88 								
									"/>
							</g>
							<g>
								<polygon class="st8" points="683.97,425.99 683.97,428.84 686.44,430.26 688.9,428.84 688.9,425.99 686.44,424.57 								
									"/>
							</g>
							<g>
								<polygon class="st8" points="683.97,407.68 683.97,410.52 686.44,411.95 688.9,410.52 688.9,407.68 686.44,406.25 								
									"/>
							</g>
							<g>
								<polygon class="st8" points="683.97,389.36 683.97,392.21 686.44,393.63 688.9,392.21 688.9,389.36 686.44,387.94 								
									"/>
							</g>
						</g>
						<g>
							<g>
								<polygon class="st8" points="703.01,444.31 703.01,447.15 705.48,448.58 707.95,447.15 707.95,444.31 705.48,442.88 
																	"/>
							</g>
							<g>
								<polygon class="st8" points="703.01,425.99 703.01,428.84 705.48,430.26 707.95,428.84 707.95,425.99 705.48,424.57 
																	"/>
							</g>
							<g>
								<polygon class="st8" points="703.01,407.68 703.01,410.52 705.48,411.95 707.95,410.52 707.95,407.68 705.48,406.25 
																	"/>
							</g>
							<g>
								<polygon class="st8" points="703.01,389.36 703.01,392.21 705.48,393.63 707.95,392.21 707.95,389.36 705.48,387.94 
																	"/>
							</g>
						</g>
						<g>
							<g>
								<polygon class="st8" points="722.05,444.31 722.05,447.15 724.52,448.58 726.99,447.15 726.99,444.31 724.52,442.88 
																	"/>
							</g>
							<g>
								<polygon class="st8" points="722.05,425.99 722.05,428.84 724.52,430.26 726.99,428.84 726.99,425.99 724.52,424.57 
																	"/>
							</g>
							<g>
								<polygon class="st8" points="722.05,407.68 722.05,410.52 724.52,411.95 726.99,410.52 726.99,407.68 724.52,406.25 
																	"/>
							</g>
							<g>
								<polygon class="st8" points="722.05,389.36 722.05,392.21 724.52,393.63 726.99,392.21 726.99,389.36 724.52,387.94 
																	"/>
							</g>
						</g>
					</g>
					<g>
						<g>
							<g>
								<polygon class="st8" points="140.87,51.26 138.02,51.26 136.59,53.73 138.02,56.2 140.87,56.2 142.29,53.73 								"/>
							</g>
							<g>
								<polygon class="st8" points="159.18,51.26 156.33,51.26 154.91,53.73 156.33,56.2 159.18,56.2 160.61,53.73 								"/>
							</g>
							<g>
								<polygon class="st8" points="177.5,51.26 174.65,51.26 173.22,53.73 174.65,56.2 177.5,56.2 178.92,53.73 								"/>
							</g>
							<g>
								<polygon class="st8" points="195.81,51.26 192.96,51.26 191.54,53.73 192.96,56.2 195.81,56.2 197.24,53.73 								"/>
							</g>
						</g>
						<g>
							<g>
								<polygon class="st8" points="140.87,70.31 138.02,70.31 136.59,72.77 138.02,75.24 140.87,75.24 142.29,72.77 								"/>
							</g>
							<g>
								<polygon class="st8" points="159.18,70.31 156.33,70.31 154.91,72.77 156.33,75.24 159.18,75.24 160.61,72.77 								"/>
							</g>
							<g>
								<polygon class="st8" points="177.5,70.31 174.65,70.31 173.22,72.77 174.65,75.24 177.5,75.24 178.92,72.77 								"/>
							</g>
							<g>
								<polygon class="st8" points="195.81,70.31 192.96,70.31 191.54,72.77 192.96,75.24 195.81,75.24 197.24,72.77 								"/>
							</g>
						</g>
						<g>
							<g>
								<polygon class="st8" points="140.87,89.35 138.02,89.35 136.59,91.81 138.02,94.28 140.87,94.28 142.29,91.81 								"/>
							</g>
							<g>
								<polygon class="st8" points="159.18,89.35 156.33,89.35 154.91,91.81 156.33,94.28 159.18,94.28 160.61,91.81 								"/>
							</g>
							<g>
								<polygon class="st8" points="177.5,89.35 174.65,89.35 173.22,91.81 174.65,94.28 177.5,94.28 178.92,91.81 								"/>
							</g>
							<g>
								<polygon class="st8" points="195.81,89.35 192.96,89.35 191.54,91.81 192.96,94.28 195.81,94.28 197.24,91.81 								"/>
							</g>
						</g>
					</g>
					<g>
						<g>
							<g>
								<polygon class="st8" points="660.17,150.09 657.32,150.09 655.89,152.56 657.32,155.02 660.17,155.02 661.59,152.56 
																	"/>
							</g>
							<g>
								<polygon class="st8" points="678.48,150.09 675.63,150.09 674.21,152.56 675.63,155.02 678.48,155.02 679.9,152.56 								
									"/>
							</g>
							<g>
								<polygon class="st8" points="696.79,150.09 693.95,150.09 692.52,152.56 693.95,155.02 696.79,155.02 698.22,152.56 
																	"/>
							</g>
							<g>
								<polygon class="st8" points="715.11,150.09 712.26,150.09 710.84,152.56 712.26,155.02 715.11,155.02 716.53,152.56 
																	"/>
							</g>
						</g>
						<g>
							<g>
								<polygon class="st8" points="660.17,169.13 657.32,169.13 655.89,171.6 657.32,174.07 660.17,174.07 661.59,171.6 								
									"/>
							</g>
							<g>
								<polygon class="st8" points="678.48,169.13 675.63,169.13 674.21,171.6 675.63,174.07 678.48,174.07 679.9,171.6 								
									"/>
							</g>
							<g>
								<polygon class="st8" points="696.79,169.13 693.95,169.13 692.52,171.6 693.95,174.07 696.79,174.07 698.22,171.6 								
									"/>
							</g>
							<g>
								<polygon class="st8" points="715.11,169.13 712.26,169.13 710.84,171.6 712.26,174.07 715.11,174.07 716.53,171.6 								
									"/>
							</g>
						</g>
						<g>
							<g>
								<polygon class="st8" points="660.17,188.17 657.32,188.17 655.89,190.64 657.32,193.11 660.17,193.11 661.59,190.64 
																	"/>
							</g>
							<g>
								<polygon class="st8" points="678.48,188.17 675.63,188.17 674.21,190.64 675.63,193.11 678.48,193.11 679.9,190.64 								
									"/>
							</g>
							<g>
								<polygon class="st8" points="696.79,188.17 693.95,188.17 692.52,190.64 693.95,193.11 696.79,193.11 698.22,190.64 
																	"/>
							</g>
							<g>
								<polygon class="st8" points="715.11,188.17 712.26,188.17 710.84,190.64 712.26,193.11 715.11,193.11 716.53,190.64 
																	"/>
							</g>
						</g>
					</g>
				</g>
			</g>
			<polygon class="st9" points="656.18,55.15 656.18,92.93 688.9,111.82 721.62,92.93 721.62,55.15 688.9,36.26 			"/>
			<polygon class="st9" points="482.11,37.52 482.11,65 505.91,78.74 529.71,65 529.71,37.52 505.91,23.78 			"/>
			<polygon class="st9" points="30.39,142.83 30.39,162.29 47.25,172.02 64.1,162.29 64.1,142.83 47.25,133.1 			"/>
			<polygon class="st9" points="630.94,371.08 630.94,390.54 647.79,400.27 664.65,390.54 664.65,371.08 647.79,361.35 			"/>
			<polygon class="st4" points="283.19,13.23 283.19,41.9 308.02,56.23 332.85,41.9 332.85,13.23 308.02,-1.11 			"/>
			<polygon class="st4" points="692.57,210.84 692.57,276.73 749.64,309.68 806.7,276.73 806.7,210.84 749.64,177.89 			"/>
			<polygon class="st5" points="0.21,330.32 0.21,391.93 53.56,422.73 106.92,391.93 106.92,330.32 53.56,299.51 			"/>
			<g>
				<polygon class="st7" points="406.43,-167.02 406.43,31.11 438.22,49.47 470.02,31.11 470.02,-167.02 510.02,-167.02 
					510.02,54.2 438.22,95.65 366.43,54.2 366.43,-167.02 				"/>
				<polygon class="st7" points="376.43,-157.02 396.43,-157.02 396.43,36.88 438.22,61.01 480.02,36.88 480.02,-157.02 
					500.02,-157.02 500.02,48.43 438.22,84.11 376.43,48.43 				"/>
				<polyline class="st7" points="386.43,-157.02 386.43,42.66 438.22,72.56 490.02,42.66 490.02,-157.02 				"/>
			</g>
			<g>
				<polygon class="st7" points="892.63,257.53 694.5,257.53 676.14,289.33 694.5,321.12 892.63,321.12 892.63,361.12 671.4,361.12 
					629.95,289.33 671.4,217.53 892.63,217.53 				"/>
				<polygon class="st7" points="882.63,227.53 882.63,247.53 688.72,247.53 664.59,289.33 688.72,331.12 882.63,331.12 
					882.63,351.12 677.18,351.12 641.5,289.33 677.18,227.53 				"/>
				<polyline class="st7" points="882.63,237.53 682.95,237.53 653.05,289.33 682.95,341.12 882.63,341.12 				"/>
			</g>
		</g>
	</g>
</g>
</svg>
